<svg width="20" height="20" viewBox="0 0 20 20" fill="none" xmlns="http://www.w3.org/2000/svg">
<path fill-rule="evenodd" clip-rule="evenodd" d="M11.875 5C11.875 4.65482 12.1548 4.375 12.5 4.375H12.5083C12.8535 4.375 13.1333 4.65482 13.1333 5C13.1333 5.34518 12.8535 5.625 12.5083 5.625H12.5C12.1548 5.625 11.875 5.34518 11.875 5Z" fill="#001DEC"/>
<path fill-rule="evenodd" clip-rule="evenodd" d="M5 3.125C3.96447 3.125 3.125 3.96447 3.125 5V11.6667C3.125 12.7022 3.96447 13.5417 5 13.5417H15C16.0355 13.5417 16.875 12.7022 16.875 11.6667V5C16.875 3.96447 16.0355 3.125 15 3.125H5ZM1.875 5C1.875 3.27411 3.27411 1.875 5 1.875H15C16.7259 1.875 18.125 3.27411 18.125 5V11.6667C18.125 13.3926 16.7259 14.7917 15 14.7917H5C3.27411 14.7917 1.875 13.3926 1.875 11.6667V5Z" fill="#001DEC"/>
<path fill-rule="evenodd" clip-rule="evenodd" d="M6.27074 7.94636L2.94194 11.2752C2.69786 11.5192 2.30214 11.5192 2.05806 11.2752C1.81398 11.0311 1.81398 10.6353 2.05806 10.3913L5.39139 7.05794L5.39997 7.04952C5.87147 6.59582 6.45124 6.31665 7.08333 6.31665C7.71542 6.31665 8.2952 6.59582 8.76669 7.04952L8.77527 7.05794L12.1086 10.3913C12.3527 10.6353 12.3527 11.0311 12.1086 11.2752C11.8645 11.5192 11.4688 11.5192 11.2247 11.2752L7.89593 7.94636C7.60874 7.67155 7.32778 7.56665 7.08333 7.56665C6.83889 7.56665 6.55793 7.67155 6.27074 7.94636Z" fill="#001DEC"/>
<path fill-rule="evenodd" clip-rule="evenodd" d="M12.9376 8.77961L11.2754 10.4417C11.0314 10.6858 10.6356 10.6858 10.3916 10.4417C10.1475 10.1977 10.1475 9.80193 10.3916 9.55785L12.0582 7.89119L12.0668 7.88277C12.5383 7.42907 13.1181 7.1499 13.7502 7.1499C14.3823 7.1499 14.962 7.42907 15.4335 7.88277L15.4421 7.89119L17.9421 10.3912C18.1862 10.6353 18.1862 11.031 17.9421 11.2751C17.698 11.5191 17.3023 11.5191 17.0582 11.2751L14.5628 8.77961C14.2756 8.5048 13.9946 8.3999 13.7502 8.3999C13.5057 8.3999 13.2248 8.5048 12.9376 8.77961Z" fill="#001DEC"/>
<path fill-rule="evenodd" clip-rule="evenodd" d="M6.0415 17.5C6.0415 17.1548 6.32133 16.875 6.6665 16.875H6.67484C7.02002 16.875 7.29984 17.1548 7.29984 17.5C7.29984 17.8452 7.02002 18.125 6.67484 18.125H6.6665C6.32133 18.125 6.0415 17.8452 6.0415 17.5Z" fill="#001DEC"/>
<path fill-rule="evenodd" clip-rule="evenodd" d="M9.375 17.5C9.375 17.1548 9.65482 16.875 10 16.875H10.0083C10.3535 16.875 10.6333 17.1548 10.6333 17.5C10.6333 17.8452 10.3535 18.125 10.0083 18.125H10C9.65482 18.125 9.375 17.8452 9.375 17.5Z" fill="#001DEC"/>
<path fill-rule="evenodd" clip-rule="evenodd" d="M12.7085 17.5C12.7085 17.1548 12.9883 16.875 13.3335 16.875H13.3418C13.687 16.875 13.9668 17.1548 13.9668 17.5C13.9668 17.8452 13.687 18.125 13.3418 18.125H13.3335C12.9883 18.125 12.7085 17.8452 12.7085 17.5Z" fill="#001DEC"/>
</svg>
