<svg width="21" height="19" viewBox="0 0 21 19" fill="none" xmlns="http://www.w3.org/2000/svg">
<path d="M11.8166 14.4634H15.5882C16.667 14.4616 17.7062 14.0568 18.502 13.3284C19.2977 12.6 19.7926 11.6006 19.8897 10.5262C19.9867 9.4518 19.6788 8.3799 19.0264 7.52075C18.374 6.66159 17.4242 6.07718 16.3631 5.88212C15.9092 4.65393 15.0877 3.5955 14.0106 2.85097C12.9335 2.10644 11.653 1.712 10.3437 1.72135C9.03428 1.73071 7.75962 2.14341 6.69323 2.90325C5.62685 3.66309 4.82058 4.73315 4.38421 5.9677C3.37547 6.24701 2.5022 6.88257 1.92626 7.75656C1.35031 8.63055 1.11075 9.6837 1.25197 10.7208C1.3932 11.758 1.90563 12.7087 2.69429 13.3969C3.48296 14.0851 4.49437 14.464 5.54106 14.4634H10.3412" stroke="white" stroke-width="2" stroke-linejoin="round"/>
<path d="M11.0815 11.043V16.908L12.0134 15.9746" stroke="white" stroke-width="3" stroke-linejoin="round"/>
<path d="M11.0816 16.9078L10.1514 15.9775" stroke="white" stroke-width="3" stroke-linejoin="round"/>
</svg>
