<svg width="21" height="20" viewBox="0 0 21 20" fill="none" xmlns="http://www.w3.org/2000/svg">
<path fill-rule="evenodd" clip-rule="evenodd" d="M10.4883 6.875C10.8335 6.875 11.1133 7.15482 11.1133 7.5V10.2083H17.9883C18.3335 10.2083 18.6133 10.4882 18.6133 10.8333C18.6133 11.1785 18.3335 11.4583 17.9883 11.4583H17.7531C17.6065 13.1632 16.8636 14.77 15.6443 15.9893C14.2768 17.3568 12.4222 18.125 10.4883 18.125C8.55441 18.125 6.69975 17.3568 5.33229 15.9893C4.11293 14.77 3.37004 13.1632 3.22343 11.4583H2.98828C2.6431 11.4583 2.36328 11.1785 2.36328 10.8333C2.36328 10.4882 2.6431 10.2083 2.98828 10.2083H9.86328V7.5C9.86328 7.15482 10.1431 6.875 10.4883 6.875ZM9.86328 11.4583H4.47901C4.62173 12.831 5.23143 14.1207 6.21618 15.1054C7.20092 16.0902 8.4906 16.6999 9.86328 16.8426V11.4583ZM11.1133 16.8426V11.4583H16.4976C16.3548 12.831 15.7451 14.1207 14.7604 15.1054C13.7756 16.0902 12.486 16.6999 11.1133 16.8426Z" fill="#001DEC"/>
<path fill-rule="evenodd" clip-rule="evenodd" d="M10.4883 3.125C9.45275 3.125 8.61328 3.96447 8.61328 5C8.61328 6.03553 9.45275 6.875 10.4883 6.875C11.5238 6.875 12.3633 6.03553 12.3633 5C12.3633 3.96447 11.5238 3.125 10.4883 3.125ZM7.36328 5C7.36328 3.27411 8.76239 1.875 10.4883 1.875C12.2142 1.875 13.6133 3.27411 13.6133 5C13.6133 6.72589 12.2142 8.125 10.4883 8.125C8.76239 8.125 7.36328 6.72589 7.36328 5Z" fill="#001DEC"/>
</svg>
