<svg width="21" height="20" viewBox="0 0 21 20" fill="none" xmlns="http://www.w3.org/2000/svg">
<path fill-rule="evenodd" clip-rule="evenodd" d="M10.5 3.125C6.70304 3.125 3.625 6.20304 3.625 10C3.625 13.797 6.70304 16.875 10.5 16.875C14.297 16.875 17.375 13.797 17.375 10C17.375 6.20304 14.297 3.125 10.5 3.125ZM2.375 10C2.375 5.51269 6.01269 1.875 10.5 1.875C14.9873 1.875 18.625 5.51269 18.625 10C18.625 14.4873 14.9873 18.125 10.5 18.125C6.01269 18.125 2.375 14.4873 2.375 10Z" fill="#001DEC"/>
<path fill-rule="evenodd" clip-rule="evenodd" d="M9.875 6.66675C9.875 6.32157 10.1548 6.04175 10.5 6.04175H10.5083C10.8535 6.04175 11.1333 6.32157 11.1333 6.66675C11.1333 7.01193 10.8535 7.29175 10.5083 7.29175H10.5C10.1548 7.29175 9.875 7.01193 9.875 6.66675Z" fill="#001DEC"/>
<path fill-rule="evenodd" clip-rule="evenodd" d="M9.04199 10C9.04199 9.65482 9.32181 9.375 9.66699 9.375H10.5003C10.8455 9.375 11.1253 9.65482 11.1253 10V12.7083H11.3337C11.6788 12.7083 11.9587 12.9882 11.9587 13.3333C11.9587 13.6785 11.6788 13.9583 11.3337 13.9583H10.5003C10.1551 13.9583 9.87533 13.6785 9.87533 13.3333V10.625H9.66699C9.32181 10.625 9.04199 10.3452 9.04199 10Z" fill="#001DEC"/>
</svg>
